#N canvas 352 305 951 995 12;
#X obj 192 222 r trigger;
#X obj 174 364 *~;
#X obj 113 105 r frequency;
#X obj 174 454 dac~;
#X obj 113 181 osc~ 880;
#X obj 203 296 line;
#X floatatom 203 321 5 0 0 0 - - - 0;
#X obj 244 324 hsl 80 12 0 1 0 0 empty empty empty -2 -8 0 10 #fcfcfc #000000 #000000 0 1;
#X msg 204 272 1 \, 0 250;
#X connect 0 0 8 0;
#X connect 1 0 3 0;
#X connect 1 0 3 1;
#X connect 2 0 4 0;
#X connect 4 0 1 0;
#X connect 5 0 6 0;
#X connect 5 0 7 0;
#X connect 6 0 1 1;
#X connect 8 0 5 0;
