#N canvas 1602 87 951 995 12;
#X obj 348 207 r trigger;
#X obj 174 364 *~;
#X obj 193 41 r frequency;
#X obj 174 454 dac~;
#X obj 245 119 unpack f f;
#X obj 113 181 osc~ 880;
#X obj 307 362 *~;
#X obj 301 217 bng 20 250 50 0 empty empty empty 0 -10 0 12 #fcfcfc #000000 #000000;
#X obj 266 169 osc~ 990;
#X msg 310 254 0 \, 1 5 0 \, 0 250 5;
#X obj 336 294 vline~;
#X obj 203 296 vline~;
#X connect 0 0 9 0;
#X connect 1 0 3 0;
#X connect 2 0 4 0;
#X connect 4 0 5 0;
#X connect 4 1 8 0;
#X connect 5 0 1 0;
#X connect 6 0 3 1;
#X connect 7 0 9 0;
#X connect 8 0 6 0;
#X connect 9 0 10 0;
#X connect 9 0 11 0;
#X connect 10 0 6 1;
#X connect 11 0 1 1;
