#N canvas 1139 145 1022 775 12;
#X obj 49 209 osc~;
#X obj 78 328 dac~;
#X obj 53 163 mtof;
#X obj 110 99 line;
#X obj 66 115 i;
#X floatatom 169 184 5 0 0 0 - - - 0;
#X msg 125 251 0.2;
#X msg 189 251 0;
#X obj 164 135 t b;
#X obj 72 286 *~;
#X obj 174 336 line~;
#X msg 187 285 \$1 1;
#X obj 69 42 r jump;
#X msg 145 48 60 \, 80 300;
#X obj 203 114 del 300;
#X connect 0 0 9 0;
#X connect 2 0 0 0;
#X connect 3 0 4 0;
#X connect 4 0 2 0;
#X connect 4 0 5 0;
#X connect 6 0 11 0;
#X connect 7 0 11 0;
#X connect 8 0 6 0;
#X connect 8 0 14 0;
#X connect 9 0 1 0;
#X connect 9 0 1 1;
#X connect 10 0 9 1;
#X connect 11 0 10 0;
#X connect 12 0 13 0;
#X connect 13 0 3 0;
#X connect 13 0 8 0;
#X connect 14 0 7 0;
